<?xml version="1.0" encoding="utf-8"?>
<!DOCTYPE svg PUBLIC "-//W3C//DTD SVG 1.1//EN" "http://www.w3.org/Graphics/SVG/1.1/DTD/svg11.dtd">
<svg version="1.1" id="Layer_1" xmlns="http://www.w3.org/2000/svg" xmlns:xlink="http://www.w3.org/1999/xlink" x="0px" y="0px" width="570px" height="340px" viewBox="0 0 570 340" enable-background="new 0 0 570 340" xml:space="preserve">
<path fill="none" stroke="#000000" stroke-width="4" d="M11.703,327.637l114.551,0.707l17.678-292.743c0,0,1.643,26.273,19.106,26.37c20.514,0.114,121.515-0.503,181.462-0.207c7.029,0.035,14.752,8.133,21.568,22.484c8.266,17.402,15.613,43.667,24.11,71.631c11.484,37.792,24.172,79.66,34.325,113.406c10.63,35.329,16.29,61.558,28.85,61.447c1.892-0.017,7.839,0.142,11.074,0.256c3.059,0.108,93.868,0.184,93.868,0.184"/>
<text x="55.8345" y="312.2568" font-family="Liberation Sans" font-style="regular" font-size="45">4</text>
<text x="97.168" y="201.0576" font-family="Liberation Sans" font-style="regular" font-size="45">0</text>
<text x="152.833" y="38.2793" font-family="Liberation Sans" font-style="regular" font-size="45">1</text>
<text x="240.2451" y="51.0073" font-family="Liberation Sans" font-style="regular" font-size="45">2</text>
<text x="411.5498" y="193.2793" font-family="Liberation Sans" font-style="regular" font-size="45">3</text>
<text x="492.167" y="310.6016" font-family="Liberation Sans" font-style="regular" font-size="45">4</text>
</svg>
