<?xml version="1.0" encoding="UTF-8" standalone="no"?>
<!-- Created with Inkscape (http://www.inkscape.org/) -->

<svg
   xmlns:dc="http://purl.org/dc/elements/1.1/"
   xmlns:cc="http://creativecommons.org/ns#"
   xmlns:rdf="http://www.w3.org/1999/02/22-rdf-syntax-ns#"
   xmlns:svg="http://www.w3.org/2000/svg"
   xmlns="http://www.w3.org/2000/svg"
   xmlns:xlink="http://www.w3.org/1999/xlink"
   xmlns:sodipodi="http://sodipodi.sourceforge.net/DTD/sodipodi-0.dtd"
   xmlns:inkscape="http://www.inkscape.org/namespaces/inkscape"
   width="744.09448819"
   height="1052.3622047"
   id="svg2"
   version="1.1"
   inkscape:version="0.48.3.1 r9886"
   sodipodi:docname="modelSpace.svg"
   inkscape:export-filename="/home/toffyrn/SVN/study/MasterThesis/Thesis-tex/10-results/figs/modelSpace.png"
   inkscape:export-xdpi="200"
   inkscape:export-ydpi="200">
  <sodipodi:namedview
     id="base"
     pagecolor="#ffffff"
     bordercolor="#666666"
     borderopacity="1.0"
     inkscape:pageopacity="0.0"
     inkscape:pageshadow="2"
     inkscape:zoom="1.4"
     inkscape:cx="236.32102"
     inkscape:cy="831.07427"
     inkscape:document-units="px"
     inkscape:current-layer="layer1"
     showgrid="true"
     inkscape:window-width="1280"
     inkscape:window-height="744"
     inkscape:window-x="0"
     inkscape:window-y="29"
     inkscape:window-maximized="1">
    <inkscape:grid
       id="grid3096"
       type="xygrid" />
  </sodipodi:namedview>
  <defs
     id="defs4">
    <pattern
       inkscape:collect="always"
       xlink:href="#pattern6998"
       id="pattern7024"
       patternTransform="matrix(0.39735099,0,0,0.39735099,304.37086,35.099063)" />
    <pattern
       inkscape:collect="always"
       xlink:href="#Strips1_1"
       id="pattern7002"
       patternTransform="matrix(3.97351,0,0,3.97351,274.56954,115.29774)" />
    <pattern
       inkscape:collect="always"
       xlink:href="#Wavy"
       id="pattern6998"
       patternTransform="translate(0,5.6171874e-6)" />
    <pattern
       inkscape:collect="always"
       xlink:href="#Wavy"
       id="pattern6994"
       patternTransform="matrix(-1,0,0,-1,355,589.72436)" />
    <pattern
       inkscape:stockid="Wavy"
       id="Wavy"
       height="5.1805778"
       width="30.066020"
       patternUnits="userSpaceOnUse"
       inkscape:collect="always">
      <path
         id="path6401"
         d="M 7.597,0.061 C 5.079,-0.187 2.656,0.302 -0.01,1.788 L -0.01,3.061 C 2.773,1.431 5.173,1.052 7.472,1.280 C 9.770,1.508 11.969,2.361 14.253,3.218 C 18.820,4.931 23.804,6.676 30.066,3.061 L 30.062,1.788 C 23.622,5.497 19.246,3.770 14.691,2.061 C 12.413,1.207 10.115,0.311 7.597,0.061 z "
         style="fill:black;stroke:none;" />
    </pattern>
    <pattern
       inkscape:collect="always"
       xlink:href="#Packedcircles"
       id="pattern6943"
       patternTransform="matrix(10,0,0,10,120,-84.999997)" />
    <pattern
       inkscape:collect="always"
       xlink:href="#Strips1_1"
       id="pattern6941"
       patternTransform="matrix(10,0,0,10,-75,-74.999997)" />
    <pattern
       inkscape:stockid="Stripes 1:1"
       id="Strips1_1"
       patternTransform="translate(0,0) scale(10,10)"
       height="1"
       width="2"
       patternUnits="userSpaceOnUse"
       inkscape:collect="always">
      <rect
         id="rect5773"
         height="2"
         width="1"
         y="-0.5"
         x="0"
         style="fill:black;stroke:none" />
    </pattern>
    <pattern
       inkscape:stockid="Packed circles"
       id="Packedcircles"
       patternTransform="translate(0,0) scale(10,10)"
       height="1.73205080756"
       width="1"
       patternUnits="userSpaceOnUse"
       inkscape:collect="always">
      <circle
         id="circle5858"
         r="0.5"
         cy="0.5"
         cx="0"
         style="fill:black;stroke:none" />
      <circle
         id="circle5860"
         r="0.5"
         cy="0.5"
         cx="1"
         style="fill:black;stroke:none" />
      <circle
         id="circle5862"
         r="0.5"
         cy="1.36602540378"
         cx="0.5"
         style="fill:black;stroke:none" />
      <circle
         id="circle5864"
         r="0.5"
         cy="-0.366025403784"
         cx="0.5"
         style="fill:black;stroke:none" />
    </pattern>
    <marker
       style="overflow:visible;"
       id="Arrow1Mend"
       refX="0.0"
       refY="0.0"
       orient="auto"
       inkscape:stockid="Arrow1Mend">
      <path
         transform="scale(0.4) rotate(180) translate(10,0)"
         style="fill-rule:evenodd;stroke:#000000;stroke-width:1.0pt;"
         d="M 0.0,0.0 L 5.0,-5.0 L -12.5,0.0 L 5.0,5.0 L 0.0,0.0 z "
         id="path4061" />
    </marker>
    <marker
       style="overflow:visible;"
       id="Arrow1Send"
       refX="0.0"
       refY="0.0"
       orient="auto"
       inkscape:stockid="Arrow1Send">
      <path
         transform="scale(0.2) rotate(180) translate(6,0)"
         style="fill-rule:evenodd;stroke:#000000;stroke-width:1.0pt;"
         d="M 0.0,0.0 L 5.0,-5.0 L -12.5,0.0 L 5.0,5.0 L 0.0,0.0 z "
         id="path4067" />
    </marker>
    <marker
       style="overflow:visible;"
       id="Arrow1Lend"
       refX="0.0"
       refY="0.0"
       orient="auto"
       inkscape:stockid="Arrow1Lend">
      <path
         transform="scale(0.8) rotate(180) translate(12.5,0)"
         style="fill-rule:evenodd;stroke:#000000;stroke-width:1.0pt;"
         d="M 0.0,0.0 L 5.0,-5.0 L -12.5,0.0 L 5.0,5.0 L 0.0,0.0 z "
         id="path4055" />
    </marker>
  </defs>
  <metadata
     id="metadata7">
    <rdf:RDF>
      <cc:Work
         rdf:about="">
        <dc:format>image/svg+xml</dc:format>
        <dc:type
           rdf:resource="http://purl.org/dc/dcmitype/StillImage" />
        <dc:title></dc:title>
      </cc:Work>
    </rdf:RDF>
  </metadata>
  <g
     id="layer1"
     inkscape:groupmode="layer"
     inkscape:label="Layer 1">
    <path
       inkscape:connector-curvature="0"
       id="path3098"
       d="m 140,332.36218 180,0"
       style="fill:none;stroke:#000000;stroke-width:1.60000000000000009;stroke-linecap:butt;stroke-linejoin:miter;stroke-opacity:1;stroke-miterlimit:4;stroke-dasharray:none;marker-start:none;marker-end:url(#Arrow1Mend)" />
    <path
       style="fill:none;stroke:#000000;stroke-width:1.60000002;stroke-linecap:butt;stroke-linejoin:miter;stroke-miterlimit:4;stroke-opacity:1;stroke-dasharray:none;marker-start:none;marker-end:url(#Arrow1Mend)"
       d="m 140,332.36218 0,-180"
       id="path5050"
       inkscape:connector-curvature="0" />
    <path
       style="opacity:0.80000000000000004;fill:url(#Strips1_1);fill-opacity:1.0;stroke:#000000;stroke-width:0.50000000000000000px;stroke-linecap:butt;stroke-linejoin:miter;stroke-opacity:1"
       d="m 215,332.36218 75,0 -75,-75 z"
       id="path6575"
       inkscape:connector-curvature="0" />
    <path
       inkscape:connector-curvature="0"
       id="path6939"
       d="m 140,257.36218 75,0 -75,-75 z"
       style="opacity:0.8;fill:url(#pattern6941);fill-opacity:1;stroke:#000000;stroke-width:0.5px;stroke-linecap:butt;stroke-linejoin:miter;stroke-opacity:1" />
    <path
       style="opacity:1;fill:url(#pattern6998);fill-opacity:1;stroke:#000000;stroke-width:0.50000000000000000px;stroke-linecap:butt;stroke-linejoin:miter;stroke-opacity:1"
       d="m 140,332.36218 75,0 -75,-75 z"
       id="path6945"
       inkscape:connector-curvature="0" />
    <rect
       style="opacity:0.60236224;fill:#000000;fill-opacity:1;fill-rule:nonzero;stroke:none"
       id="rect6996"
       width="75"
       height="75"
       x="140"
       y="257.36218"
       rx="0.37037039"
       ry="0.40000001" />
    <path
       inkscape:connector-curvature="0"
       id="path7000"
       d="m 360,247.36218 29.80133,0 L 360,217.56085 z"
       style="opacity:0.8;fill:url(#pattern7002);fill-opacity:1;stroke:#000000;stroke-width:0.1986755px;stroke-linecap:butt;stroke-linejoin:miter;stroke-opacity:1" />
    <rect
       ry="0.16"
       rx="0.14814816"
       y="177.36218"
       x="360"
       height="30"
       width="30"
       id="rect7020"
       style="opacity:0.60236224;fill:#000000;fill-opacity:1;fill-rule:nonzero;stroke:none" />
    <path
       inkscape:connector-curvature="0"
       id="path7022"
       d="m 360,167.1635 29.80132,0 L 360,137.36218 z"
       style="fill:url(#pattern7024);fill-opacity:1;stroke:#000000;stroke-width:0.1986755px;stroke-linecap:butt;stroke-linejoin:miter;stroke-opacity:1" />
    <g
       id="g7349"
       transform="matrix(0.43439595,0,0,0.43439595,275.09783,44.323802)">
      <g
         word-spacing="normal"
         letter-spacing="normal"
         font-size-adjust="none"
         font-stretch="normal"
         font-weight="normal"
         font-variant="normal"
         font-style="normal"
         stroke-miterlimit="10.433"
         xml:space="preserve"
         transform="matrix(1.0629921,0,0,-1.0629921,-186.02362,789.27165)"
         id="g7351"
         style="font-style:normal;font-variant:normal;font-weight:normal;font-stretch:normal;letter-spacing:normal;word-spacing:normal;text-anchor:start;fill:none;stroke:#000000;stroke-linecap:butt;stroke-linejoin:miter;stroke-miterlimit:10.43299961;stroke-opacity:1;stroke-dasharray:none;stroke-dashoffset:0"><path
           id="path7353"
           d="m 458,440.32 -0.16,0 -0.16,0 -0.08,0 -0.08,0 -0.08,-0.01 -0.08,0 -0.07,-0.01 -0.07,0 -0.07,-0.01 -0.07,-0.01 -0.07,-0.02 -0.06,-0.01 -0.06,-0.02 -0.06,-0.02 -0.06,-0.02 -0.06,-0.02 -0.05,-0.03 -0.04,-0.03 -0.05,-0.04 -0.04,-0.04 -0.04,-0.04 -0.04,-0.04 -0.03,-0.05 -0.01,-0.03 -0.01,-0.02 -0.02,-0.03 -0.01,-0.03 -0.01,-0.03 -0.01,-0.03 -0.01,-0.03 0,-0.04 -0.01,-0.03 0,-0.04 -0.01,-0.04 0,-0.04 0,-0.03 0,-0.05 c 0,-0.84 0.95,-0.84 1.34,-0.84 2.59,0 2.8,-0.41 2.8,-2.84 v -24.97 l 1.73,-0.1 v 25.16 c 0,0.66 0,1.84 -0.39,2.75 h 5.67 c -0.64,-0.75 -0.64,-1.84 -0.64,-2.55 l 1.74,-0.15 c 0,1.11 0,1.54 0.9,2.09 0.44,0.36 1.35,0.61 2.39,0.61 4.19,0 9.32,-3.69 9.32,-14.8 0,-6.33 -1.3,-15.84 -9.66,-15.84 -2.95,0 -2.95,1.73 -2.95,2.69 v 25.25 l -1.74,0.15 v -25.56 c 0,-0.75 0,-1.73 0.64,-2.53 h -5.67 c 0.39,0.89 0.39,2.09 0.39,2.73 l -1.73,0.1 c 0,-2.44 -0.21,-2.83 -2.75,-2.83 -0.5,0 -1.39,0 -1.39,-0.86 0,-0.89 0.79,-0.89 1.68,-0.89 h 14.36 c 8.72,0 17.58,5.44 17.58,17.69 h -1.73 c 0,-8.47 -4.6,-13.05 -9.52,-14.8 3.24,3.39 4.24,8.92 4.24,14.7 0,7.17 -1.96,11.11 -4.49,13.8 h 0.05 c 7.12,-2.3 9.72,-7.78 9.72,-13.7 h 1.73 c 0,11.9 -9.47,16.43 -17.53,16.43 z"
           inkscape:connector-curvature="0"
           style="fill:#000000;stroke-width:0" /><path
           id="path7355"
           d="m 504.57,421.54 0.01,0 0.01,0 0.01,0 0.01,0 0.02,0 0.01,0 0.04,0 0.04,0 0.04,0 0.04,0 0.05,0 0.05,0 0.05,0 0.05,0 0.06,0 0.11,0 0.11,0 0.11,-0.01 0.05,0 0.06,0 0.05,0 0.05,0 0.04,0 0.05,-0.01 0.04,0 0.04,0 0.03,-0.01 0.02,0 0.01,0 0.02,0 0.01,0 0.01,0 0.01,-0.01 0.01,0 0.01,0 0,0 0.01,0 h 1.7 c 10.11,0 13.75,4.73 13.75,9.46 0,7.07 -6.37,9.36 -12.81,9.36 H 494 c -0.89,0 -1.68,0 -1.68,-0.89 0,-0.84 0.95,-0.84 1.34,-0.84 2.59,0 2.8,-0.41 2.8,-2.84 v -24.97 c 0,-2.44 -0.21,-2.83 -2.75,-2.83 -0.5,0 -1.39,0 -1.39,-0.86 0,-0.89 0.79,-0.89 1.68,-0.89 h 13.36 c 0.89,0 1.64,0 1.64,0.89 0,0.86 -0.84,0.86 -1.39,0.86 -2.84,0 -3.04,0.39 -3.04,2.83 l -1.74,-0.1 c 0,-0.5 0,-1.84 0.39,-2.73 h -5.42 c 0.39,0.89 0.39,2.09 0.39,2.73 v 25.16 c 0,0.66 0,1.84 -0.39,2.75 h 5.67 c -0.64,-0.8 -0.64,-1.8 -0.64,-2.55 l 1.74,-0.15 c 0,1 0,2.7 3,2.7 3.57,0 5.23,-1.36 5.23,-7.58 h 1.73 c 0,2.64 -0.25,5.28 -1.54,7.13 2.75,-0.66 6.62,-2.14 6.62,-7.18 0,-3.48 -2.23,-6.03 -6.81,-7.17 h 0 c 1.6,2.08 1.73,5.22 1.73,7.22 h -1.73 c 0,-7.12 -2.64,-7.72 -5.73,-7.72 h -2.5 v 12.6 l -1.74,0.15 v -25.36 l 1.74,0.1 z"
           inkscape:connector-curvature="0"
           style="fill:#000000;stroke-width:0" /><path
           id="path7357"
           d="m 538.48,394.25 0,0.02 0,0.03 0,0.01 -0.01,0.02 0,0.01 0,0.02 -0.01,0.01 -0.01,0.02 0,0.02 -0.01,0.02 -0.02,0.02 -0.01,0.03 -0.02,0.02 -0.02,0.03 -0.02,0.03 -0.02,0.03 -0.03,0.03 -0.03,0.04 -0.01,0.02 -0.02,0.02 -0.02,0.02 -0.01,0.02 -0.02,0.02 -0.02,0.03 -0.02,0.02 -0.03,0.02 -0.02,0.03 -0.02,0.02 -0.03,0.03 -0.02,0.03 -0.03,0.03 -0.03,0.03 -0.03,0.03 -0.02,0.03 -0.04,0.03 -0.03,0.03 -0.03,0.04 -0.03,0.03 -0.04,0.04 -0.04,0.03 -0.03,0.04 -0.04,0.04 c -6.22,6.28 -7.82,15.69 -7.82,23.31 0,8.67 1.9,17.35 8.02,23.56 0.64,0.61 0.64,0.71 0.64,0.86 0,0.35 -0.19,0.49 -0.48,0.49 -0.5,0 -4.99,-3.38 -7.93,-9.7 -2.54,-5.49 -3.14,-11.02 -3.14,-15.21 0,-3.89 0.55,-9.9 3.29,-15.54 2.98,-6.13 7.28,-9.36 7.78,-9.36 0.29,0 0.48,0.14 0.48,0.5 z"
           inkscape:connector-curvature="0"
           style="fill:#000000;stroke-width:0" /><path
           id="path7359"
           d="m 567.17,423.14 0.48,0.11 0.47,0.12 0.48,0.14 0.49,0.15 0.48,0.16 0.48,0.18 0.48,0.19 0.48,0.2 0.47,0.22 0.46,0.23 0.46,0.24 0.45,0.25 0.44,0.27 0.43,0.28 0.41,0.29 0.41,0.3 0.38,0.31 0.37,0.32 0.36,0.34 0.34,0.35 0.31,0.35 0.3,0.37 0.27,0.38 0.25,0.39 0.23,0.4 0.2,0.41 0.17,0.42 0.14,0.43 0.11,0.44 0.09,0.45 0.05,0.46 0.01,0.47 c 0,4.28 -4.48,7.47 -11,7.47 h -14.2 c -1,0 -1.45,0 -1.45,-1 0,-0.55 0.45,-0.55 1.41,-0.55 0.09,0 1.04,0 1.89,-0.09 0.89,-0.11 1.34,-0.16 1.34,-0.8 0,-0.2 -0.05,-0.36 -0.2,-0.95 l -6.68,-26.75 c -0.5,-1.95 -0.59,-2.34 -4.53,-2.34 -0.9,0 -1.34,0 -1.34,-1 0,-0.55 0.59,-0.55 0.69,-0.55 1.4,0 4.89,0.16 6.28,0.16 1.39,0 4.94,-0.16 6.33,-0.16 0.4,0 1,0 1,1 0,0.55 -0.46,0.55 -1.39,0.55 -1.85,0 -3.25,0 -3.25,0.89 0,0.29 0.1,0.54 0.15,0.84 l 3.28,13.2 h 5.94 l -0.05,1.11 h -5.59 l 3.25,13 c 0.3,1.19 0.44,1.69 1.39,1.85 0.45,0.04 2.05,0.04 3.03,0.04 3.55,0 9.08,0 9.08,-4.93 0,-1.69 -0.8,-5.13 -2.75,-7.07 -1.28,-1.29 -3.92,-2.89 -8.41,-2.89 l 0.05,-1.11 c 4.53,0 5.42,-2.78 5.42,-4.53 0,-0.75 -0.39,-2.28 -0.69,-3.44 -0.35,-1.39 -0.79,-3.23 -0.79,-4.23 0,-5.37 5.97,-5.37 6.62,-5.37 4.24,0 5.97,5.03 5.97,5.73 0,0.59 -0.54,0.59 -0.59,0.59 -0.45,0 -0.55,-0.36 -0.64,-0.7 -1.25,-3.69 -3.39,-4.53 -4.55,-4.53 -1.64,0 -1.98,1.09 -1.98,3.05 0,1.53 0.29,4.07 0.5,5.67 0.09,0.7 0.2,1.64 0.2,2.34 0,3.83 -3.34,5.38 -4.69,5.88 z"
           inkscape:connector-curvature="0"
           style="fill:#000000;stroke-width:0" /><path
           id="path7361"
           d="m 593.86,418.65 0,0.37 -0.01,0.39 -0.01,0.39 -0.01,0.41 -0.04,0.84 -0.06,0.88 -0.08,0.92 -0.11,0.95 -0.13,0.97 -0.17,1.01 -0.19,1.02 -0.23,1.03 -0.27,1.05 -0.31,1.06 -0.34,1.07 -0.4,1.07 -0.21,0.53 -0.22,0.53 -0.24,0.53 -0.25,0.53 c -2.99,6.12 -7.27,9.36 -7.77,9.36 -0.29,0 -0.5,-0.19 -0.5,-0.49 0,-0.15 0,-0.25 0.94,-1.15 4.89,-4.92 7.73,-12.85 7.73,-23.27 0,-8.51 -1.84,-17.28 -8.03,-23.56 -0.64,-0.59 -0.64,-0.7 -0.64,-0.84 0,-0.3 0.21,-0.5 0.5,-0.5 0.5,0 4.97,3.39 7.92,9.71 2.54,5.47 3.13,11 3.13,15.19 z"
           inkscape:connector-curvature="0"
           style="fill:#000000;stroke-width:0" /></g>    </g>
    <g
       transform="matrix(0.43439595,0,0,0.43439595,275.144,4.3238019)"
       id="g7461">
      <g
         style="font-style:normal;font-variant:normal;font-weight:normal;font-stretch:normal;letter-spacing:normal;word-spacing:normal;text-anchor:start;fill:none;stroke:#000000;stroke-linecap:butt;stroke-linejoin:miter;stroke-miterlimit:10.43299961;stroke-opacity:1;stroke-dasharray:none;stroke-dashoffset:0"
         id="content"
         transform="matrix(1.0629921,0,0,-1.0629921,-186.02362,789.27165)"
         xml:space="preserve"
         stroke-miterlimit="10.433"
         font-style="normal"
         font-variant="normal"
         font-weight="normal"
         font-stretch="normal"
         font-size-adjust="none"
         letter-spacing="normal"
         word-spacing="normal"><path
           style="fill:#000000;stroke-width:0"
           inkscape:connector-curvature="0"
           d="m 468.43,422.93 0.12,0 0.12,0 0.14,0 0.13,0 0.15,0 0.15,0 0.15,-0.01 0.16,0 0.16,-0.01 0.17,-0.01 0.34,-0.02 0.35,-0.03 0.36,-0.05 0.37,-0.05 0.37,-0.07 0.18,-0.04 0.19,-0.05 0.18,-0.04 0.18,-0.06 0.19,-0.06 0.18,-0.06 0.18,-0.06 0.17,-0.08 0.18,-0.08 0.17,-0.08 0.17,-0.09 0.16,-0.09 -0.2,2.04 v 0.05 c 0.79,0.36 1.9,1.09 2.79,2.14 v -4.17 c -1.2,1.34 -2.73,1.98 -2.79,1.98 l 0.2,-2.04 c 2.39,-1.53 2.59,-4.24 2.59,-4.53 0.05,-0.69 0.05,-1.35 0.9,-1.35 0.85,0 0.85,0.7 0.85,1.6 v 13.5 c 0,0.79 0,1.59 -0.85,1.59 -0.85,0 -0.9,-0.75 -0.9,-1.14 -0.29,-6.42 -5.37,-6.78 -7.96,-6.83 v 10.52 c 0,3.34 0.93,3.34 2.14,3.34 h 2.39 c 6.72,0 10.06,-3.44 10.36,-6.88 0.04,-0.4 0.11,-1.15 0.9,-1.15 0.85,0 0.85,0.8 0.85,1.64 v 6.48 c 0,1.55 -0.11,1.64 -1.64,1.64 l -0.11,-1.73 v -2.39 c -0.85,0.94 -1.8,1.73 -2.85,2.39 h 2.85 l 0.11,1.73 h -25.52 c -0.89,0 -1.69,0 -1.69,-0.89 0,-0.84 0.94,-0.84 1.35,-0.84 2.82,0 3.03,-0.41 3.03,-2.84 v -24.97 l 1.75,-0.1 v 25.16 c 0,0.59 0,1.84 -0.41,2.75 h 5.28 c -0.54,-1.16 -0.54,-2.8 -0.54,-3.25 v -24.16 c 0,-1.79 0.36,-2.79 0.54,-3.23 h -5.28 c 0.41,0.89 0.41,2.14 0.41,2.73 l -1.75,0.1 c 0,-2.35 -0.14,-2.83 -2.78,-2.83 -0.75,0 -1.6,0 -1.6,-0.86 0,-0.89 0.8,-0.89 1.69,-0.89 h 26.41 l 0.04,1.75 h -3.48 V 408 c 1.59,0.79 2.94,1.84 3.94,2.73 -0.05,-0.2 -0.41,-2.39 -0.46,-2.78 l -0.04,-1.75 c 0.95,0 1.43,0 1.59,0.7 0.05,0.05 1.44,8.36 1.44,8.61 0,0.55 -0.44,0.91 -0.85,0.91 -0.68,0 -0.89,-0.66 -0.89,-0.71 -0.29,-1.29 -0.79,-3.39 -4.43,-5.53 -2.6,-1.54 -5.13,-2.23 -7.88,-2.23 h -2.73 c -1.21,0 -2.14,0 -2.14,3.33 z"
           id="path7464" /><path
           style="fill:#000000;stroke-width:0"
           inkscape:connector-curvature="0"
           d="m 521.49,439.64 0,0.15 0,0.16 0,0.08 0,0.07 -0.01,0.08 0,0.07 -0.01,0.07 0,0.07 -0.01,0.07 -0.01,0.07 -0.01,0.06 -0.02,0.06 -0.01,0.06 -0.02,0.06 -0.02,0.06 -0.03,0.05 -0.02,0.05 -0.03,0.05 -0.04,0.04 -0.03,0.05 -0.04,0.03 -0.04,0.04 -0.05,0.03 -0.03,0.01 -0.02,0.02 -0.03,0.01 -0.02,0.01 -0.03,0.01 -0.03,0.01 -0.03,0.01 -0.04,0.01 -0.03,0 -0.03,0.01 -0.04,0 -0.04,0 -0.03,0.01 -0.04,0 c -0.06,0 -0.8,0 -0.91,-0.91 -0.14,-1.39 -1.29,-1.39 -1.64,-1.39 l 0.05,-1.75 c 0.55,0 1.2,0.11 1.59,0.36 v -3.09 c -0.59,0.84 -1.23,1.5 -2.48,2.79 0.25,-0.06 0.64,-0.06 0.89,-0.06 l -0.05,1.75 c -1.75,0 -3.48,0.75 -4.48,1.2 -2.55,1.1 -4.69,1.1 -5.49,1.1 -8.31,0 -17.53,-5.24 -17.53,-17.99 0,-12.7 9.02,-18.04 17.64,-18.04 2.64,0 6.17,0.54 9.81,2.75 2.3,1.43 4.83,3.93 4.83,4.62 0,0.7 -0.75,1 -1.04,1 -0.35,0 -0.55,-0.14 -1.05,-0.7 -2.89,-3.28 -7.31,-5.28 -11.75,-5.28 -7.72,0 -9.67,7.82 -9.67,15.54 h -1.74 c 0,-4.92 0.74,-11.79 5.22,-15.39 -8.17,2.64 -10.5,9.36 -10.5,15.44 0,9.17 5.03,13.61 9.7,15.2 v -0.04 c -1.14,-1.16 -4.42,-5.44 -4.42,-15.21 h 1.74 c 0,9.82 3.59,16.35 8.92,16.35 3.73,0 9.72,-3.64 11.41,-8.92 0.15,-0.44 0.29,-0.94 0.95,-0.94 0.84,0 0.84,0.79 0.84,1.64 z"
           id="path7466" /><path
           style="fill:#000000;stroke-width:0"
           inkscape:connector-curvature="0"
           d="m 541.24,394.25 0,0.02 0,0.03 0,0.01 0,0.02 -0.01,0.01 0,0.02 -0.01,0.01 0,0.02 -0.01,0.02 -0.01,0.02 -0.01,0.02 -0.02,0.03 -0.01,0.02 -0.02,0.03 -0.02,0.03 -0.03,0.03 -0.02,0.03 -0.03,0.04 -0.02,0.02 -0.02,0.02 -0.01,0.02 -0.02,0.02 -0.02,0.02 -0.02,0.03 -0.02,0.02 -0.02,0.02 -0.03,0.03 -0.02,0.02 -0.03,0.03 -0.02,0.03 -0.03,0.03 -0.02,0.03 -0.03,0.03 -0.03,0.03 -0.03,0.03 -0.04,0.03 -0.03,0.04 -0.03,0.03 -0.04,0.04 -0.04,0.03 -0.03,0.04 -0.04,0.04 c -6.22,6.28 -7.81,15.69 -7.81,23.31 0,8.67 1.89,17.35 8.01,23.56 0.64,0.61 0.64,0.71 0.64,0.86 0,0.35 -0.19,0.49 -0.48,0.49 -0.5,0 -4.99,-3.38 -7.92,-9.7 -2.55,-5.49 -3.14,-11.02 -3.14,-15.21 0,-3.89 0.54,-9.9 3.28,-15.54 2.98,-6.13 7.28,-9.36 7.78,-9.36 0.29,0 0.48,0.14 0.48,0.5 z"
           id="path7468" /><path
           style="fill:#000000;stroke-width:0"
           inkscape:connector-curvature="0"
           d="m 569.93,423.14 0.48,0.11 0.48,0.12 0.48,0.14 0.48,0.15 0.48,0.16 0.48,0.18 0.48,0.19 0.48,0.2 0.47,0.22 0.46,0.23 0.46,0.24 0.45,0.25 0.44,0.27 0.43,0.28 0.41,0.29 0.41,0.3 0.39,0.31 0.37,0.32 0.35,0.34 0.34,0.35 0.31,0.35 0.3,0.37 0.27,0.38 0.25,0.39 0.23,0.4 0.2,0.41 0.17,0.42 0.14,0.43 0.12,0.44 0.08,0.45 0.05,0.46 0.02,0.47 c 0,4.28 -4.49,7.47 -11,7.47 h -14.21 c -1,0 -1.45,0 -1.45,-1 0,-0.55 0.45,-0.55 1.41,-0.55 0.09,0 1.04,0 1.89,-0.09 0.89,-0.11 1.34,-0.16 1.34,-0.8 0,-0.2 -0.05,-0.36 -0.2,-0.95 L 552,410.09 c -0.5,-1.95 -0.6,-2.34 -4.53,-2.34 -0.91,0 -1.35,0 -1.35,-1 0,-0.55 0.6,-0.55 0.69,-0.55 1.41,0 4.89,0.16 6.28,0.16 1.39,0 4.94,-0.16 6.33,-0.16 0.4,0 1,0 1,1 0,0.55 -0.45,0.55 -1.39,0.55 -1.85,0 -3.25,0 -3.25,0.89 0,0.29 0.11,0.54 0.15,0.84 l 3.29,13.2 h 5.93 l -0.05,1.11 h -5.59 l 3.25,13 c 0.3,1.19 0.44,1.69 1.39,1.85 0.45,0.04 2.05,0.04 3.03,0.04 3.55,0 9.08,0 9.08,-4.93 0,-1.69 -0.79,-5.13 -2.75,-7.07 -1.28,-1.29 -3.92,-2.89 -8.41,-2.89 l 0.05,-1.11 c 4.53,0 5.42,-2.78 5.42,-4.53 0,-0.75 -0.39,-2.28 -0.68,-3.44 -0.36,-1.39 -0.8,-3.23 -0.8,-4.23 0,-5.37 5.97,-5.37 6.63,-5.37 4.23,0 5.96,5.03 5.96,5.73 0,0.59 -0.54,0.59 -0.59,0.59 -0.45,0 -0.55,-0.36 -0.64,-0.7 -1.25,-3.69 -3.39,-4.53 -4.55,-4.53 -1.64,0 -1.98,1.09 -1.98,3.05 0,1.53 0.3,4.07 0.5,5.67 0.09,0.7 0.2,1.64 0.2,2.34 0,3.83 -3.34,5.38 -4.69,5.88 z"
           id="path7470" /><path
           style="fill:#000000;stroke-width:0"
           inkscape:connector-curvature="0"
           d="m 596.62,418.65 0,0.37 -0.01,0.39 0,0.39 -0.02,0.41 -0.04,0.84 -0.06,0.88 -0.08,0.92 -0.11,0.95 -0.13,0.97 -0.16,1.01 -0.2,1.02 -0.23,1.03 -0.27,1.05 -0.3,1.06 -0.35,1.07 -0.39,1.07 -0.22,0.53 -0.22,0.53 -0.24,0.53 -0.25,0.53 c -2.99,6.12 -7.27,9.36 -7.77,9.36 -0.29,0 -0.5,-0.19 -0.5,-0.49 0,-0.15 0,-0.25 0.94,-1.15 4.89,-4.92 7.74,-12.85 7.74,-23.27 0,-8.51 -1.85,-17.28 -8.03,-23.56 -0.65,-0.59 -0.65,-0.7 -0.65,-0.84 0,-0.3 0.21,-0.5 0.5,-0.5 0.5,0 4.97,3.39 7.93,9.71 2.53,5.47 3.12,11 3.12,15.19 z"
           id="path7472" /></g>    </g>
    <g
       id="g7572"
       transform="matrix(0.43439595,0,0,0.43439595,275.144,84.323802)">
      <g
         word-spacing="normal"
         letter-spacing="normal"
         font-size-adjust="none"
         font-stretch="normal"
         font-weight="normal"
         font-variant="normal"
         font-style="normal"
         stroke-miterlimit="10.433"
         xml:space="preserve"
         transform="matrix(1.0629921,0,0,-1.0629921,-186.02362,789.27165)"
         id="g7574"
         style="font-style:normal;font-variant:normal;font-weight:normal;font-stretch:normal;letter-spacing:normal;word-spacing:normal;text-anchor:start;fill:none;stroke:#000000;stroke-linecap:butt;stroke-linejoin:miter;stroke-miterlimit:10.43299961;stroke-opacity:1;stroke-dasharray:none;stroke-dashoffset:0"><path
           id="path7576"
           d="m 468.43,422.93 0.12,0 0.12,0 0.14,0 0.13,0 0.15,0 0.15,0 0.15,-0.01 0.16,0 0.16,-0.01 0.17,-0.01 0.34,-0.02 0.35,-0.03 0.36,-0.05 0.37,-0.05 0.37,-0.07 0.18,-0.04 0.19,-0.05 0.18,-0.04 0.18,-0.06 0.19,-0.06 0.18,-0.06 0.18,-0.06 0.17,-0.08 0.18,-0.08 0.17,-0.08 0.17,-0.09 0.16,-0.09 -0.2,2.04 v 0.05 c 0.79,0.36 1.9,1.09 2.79,2.14 v -4.17 c -1.2,1.34 -2.73,1.98 -2.79,1.98 l 0.2,-2.04 c 2.39,-1.53 2.59,-4.24 2.59,-4.53 0.05,-0.69 0.05,-1.35 0.9,-1.35 0.85,0 0.85,0.7 0.85,1.6 v 13.5 c 0,0.79 0,1.59 -0.85,1.59 -0.85,0 -0.9,-0.75 -0.9,-1.14 -0.29,-6.42 -5.37,-6.78 -7.96,-6.83 v 10.52 c 0,3.34 0.93,3.34 2.14,3.34 h 2.39 c 6.72,0 10.06,-3.44 10.36,-6.88 0.04,-0.4 0.11,-1.15 0.9,-1.15 0.85,0 0.85,0.8 0.85,1.64 v 6.48 c 0,1.55 -0.11,1.64 -1.64,1.64 l -0.11,-1.73 v -2.39 c -0.85,0.94 -1.8,1.73 -2.85,2.39 h 2.85 l 0.11,1.73 h -25.52 c -0.89,0 -1.69,0 -1.69,-0.89 0,-0.84 0.94,-0.84 1.35,-0.84 2.82,0 3.03,-0.41 3.03,-2.84 v -24.97 l 1.75,-0.1 v 25.16 c 0,0.59 0,1.84 -0.41,2.75 h 5.28 c -0.54,-1.16 -0.54,-2.8 -0.54,-3.25 v -24.16 c 0,-1.79 0.36,-2.79 0.54,-3.23 h -5.28 c 0.41,0.89 0.41,2.14 0.41,2.73 l -1.75,0.1 c 0,-2.35 -0.14,-2.83 -2.78,-2.83 -0.75,0 -1.6,0 -1.6,-0.86 0,-0.89 0.8,-0.89 1.69,-0.89 h 26.41 l 0.04,1.75 h -3.48 V 408 c 1.59,0.79 2.94,1.84 3.94,2.73 -0.05,-0.2 -0.41,-2.39 -0.46,-2.78 l -0.04,-1.75 c 0.95,0 1.43,0 1.59,0.7 0.05,0.05 1.44,8.36 1.44,8.61 0,0.55 -0.44,0.91 -0.85,0.91 -0.68,0 -0.89,-0.66 -0.89,-0.71 -0.29,-1.29 -0.79,-3.39 -4.43,-5.53 -2.6,-1.54 -5.13,-2.23 -7.88,-2.23 h -2.73 c -1.21,0 -2.14,0 -2.14,3.33 z"
           inkscape:connector-curvature="0"
           style="fill:#000000;stroke-width:0" /><path
           id="path7578"
           d="m 521.49,439.64 0,0.15 0,0.16 0,0.08 0,0.07 -0.01,0.08 0,0.07 -0.01,0.07 0,0.07 -0.01,0.07 -0.01,0.07 -0.01,0.06 -0.02,0.06 -0.01,0.06 -0.02,0.06 -0.02,0.06 -0.03,0.05 -0.02,0.05 -0.03,0.05 -0.04,0.04 -0.03,0.05 -0.04,0.03 -0.04,0.04 -0.05,0.03 -0.03,0.01 -0.02,0.02 -0.03,0.01 -0.02,0.01 -0.03,0.01 -0.03,0.01 -0.03,0.01 -0.04,0.01 -0.03,0 -0.03,0.01 -0.04,0 -0.04,0 -0.03,0.01 -0.04,0 c -0.06,0 -0.8,0 -0.91,-0.91 -0.14,-1.39 -1.29,-1.39 -1.64,-1.39 l 0.05,-1.75 c 0.55,0 1.2,0.11 1.59,0.36 v -3.09 c -0.59,0.84 -1.23,1.5 -2.48,2.79 0.25,-0.06 0.64,-0.06 0.89,-0.06 l -0.05,1.75 c -1.75,0 -3.48,0.75 -4.48,1.2 -2.55,1.1 -4.69,1.1 -5.49,1.1 -8.31,0 -17.53,-5.24 -17.53,-17.99 0,-12.7 9.02,-18.04 17.64,-18.04 2.64,0 6.17,0.54 9.81,2.75 2.3,1.43 4.83,3.93 4.83,4.62 0,0.7 -0.75,1 -1.04,1 -0.35,0 -0.55,-0.14 -1.05,-0.7 -2.89,-3.28 -7.31,-5.28 -11.75,-5.28 -7.72,0 -9.67,7.82 -9.67,15.54 h -1.74 c 0,-4.92 0.74,-11.79 5.22,-15.39 -8.17,2.64 -10.5,9.36 -10.5,15.44 0,9.17 5.03,13.61 9.7,15.2 v -0.04 c -1.14,-1.16 -4.42,-5.44 -4.42,-15.21 h 1.74 c 0,9.82 3.59,16.35 8.92,16.35 3.73,0 9.72,-3.64 11.41,-8.92 0.15,-0.44 0.29,-0.94 0.95,-0.94 0.84,0 0.84,0.79 0.84,1.64 z"
           inkscape:connector-curvature="0"
           style="fill:#000000;stroke-width:0" /><path
           id="path7580"
           d="m 541.24,394.25 0,0.02 0,0.03 0,0.01 0,0.02 -0.01,0.01 0,0.02 -0.01,0.01 0,0.02 -0.01,0.02 -0.01,0.02 -0.01,0.02 -0.02,0.03 -0.01,0.02 -0.02,0.03 -0.02,0.03 -0.03,0.03 -0.02,0.03 -0.03,0.04 -0.02,0.02 -0.02,0.02 -0.01,0.02 -0.02,0.02 -0.02,0.02 -0.02,0.03 -0.02,0.02 -0.02,0.02 -0.03,0.03 -0.02,0.02 -0.03,0.03 -0.02,0.03 -0.03,0.03 -0.02,0.03 -0.03,0.03 -0.03,0.03 -0.03,0.03 -0.04,0.03 -0.03,0.04 -0.03,0.03 -0.04,0.04 -0.04,0.03 -0.03,0.04 -0.04,0.04 c -6.22,6.28 -7.81,15.69 -7.81,23.31 0,8.67 1.89,17.35 8.01,23.56 0.64,0.61 0.64,0.71 0.64,0.86 0,0.35 -0.19,0.49 -0.48,0.49 -0.5,0 -4.99,-3.38 -7.92,-9.7 -2.55,-5.49 -3.14,-11.02 -3.14,-15.21 0,-3.89 0.54,-9.9 3.28,-15.54 2.98,-6.13 7.28,-9.36 7.78,-9.36 0.29,0 0.48,0.14 0.48,0.5 z"
           inkscape:connector-curvature="0"
           style="fill:#000000;stroke-width:0" /><path
           id="path7582"
           d="m 550.4,410.04 5.28,5.13 c 7.77,6.87 10.77,9.56 10.77,14.54 0,5.69 -4.48,9.68 -10.56,9.68 -5.64,0 -9.33,-4.6 -9.33,-9.03 0,-2.79 2.5,-2.79 2.64,-2.79 0.86,0 2.59,0.6 2.59,2.64 0,1.3 -0.89,2.6 -2.64,2.6 -0.39,0 -0.5,0 -0.64,-0.05 1.14,3.24 3.83,5.08 6.72,5.08 4.53,0 6.69,-4.05 6.69,-8.13 0,-3.98 -2.5,-7.92 -5.24,-11.01 l -9.56,-10.66 c -0.56,-0.54 -0.56,-0.64 -0.56,-1.84 h 18.48 l 1.41,8.67 h -1.25 c -0.25,-1.5 -0.6,-3.69 -1.1,-4.44 -0.35,-0.39 -3.63,-0.39 -4.73,-0.39 z"
           inkscape:connector-curvature="0"
           style="fill:#000000;stroke-width:0" /><path
           id="path7584"
           d="m 594.89,423.14 0.48,0.11 0.47,0.12 0.48,0.14 0.49,0.15 0.48,0.16 0.48,0.18 0.48,0.19 0.47,0.2 0.48,0.22 0.46,0.23 0.46,0.24 0.45,0.25 0.44,0.27 0.43,0.28 0.41,0.29 0.4,0.3 0.39,0.31 0.37,0.32 0.36,0.34 0.33,0.35 0.32,0.35 0.3,0.37 0.27,0.38 0.25,0.39 0.23,0.4 0.19,0.41 0.18,0.42 0.14,0.43 0.11,0.44 0.09,0.45 0.05,0.46 0.01,0.47 c 0,4.28 -4.48,7.47 -11,7.47 h -14.2 c -1,0 -1.45,0 -1.45,-1 0,-0.55 0.45,-0.55 1.4,-0.55 0.1,0 1.05,0 1.89,-0.09 0.9,-0.11 1.35,-0.16 1.35,-0.8 0,-0.2 -0.05,-0.36 -0.21,-0.95 l -6.67,-26.75 c -0.5,-1.95 -0.59,-2.34 -4.53,-2.34 -0.9,0 -1.34,0 -1.34,-1 0,-0.55 0.59,-0.55 0.69,-0.55 1.4,0 4.89,0.16 6.28,0.16 1.39,0 4.93,-0.16 6.33,-0.16 0.4,0 1,0 1,1 0,0.55 -0.46,0.55 -1.4,0.55 -1.84,0 -3.25,0 -3.25,0.89 0,0.29 0.11,0.54 0.16,0.84 l 3.28,13.2 h 5.94 l -0.05,1.11 h -5.59 l 3.25,13 c 0.3,1.19 0.44,1.69 1.39,1.85 0.45,0.04 2.05,0.04 3.03,0.04 3.55,0 9.08,0 9.08,-4.93 0,-1.69 -0.8,-5.13 -2.75,-7.07 -1.28,-1.29 -3.92,-2.89 -8.41,-2.89 l 0.05,-1.11 c 4.53,0 5.42,-2.78 5.42,-4.53 0,-0.75 -0.39,-2.28 -0.69,-3.44 -0.36,-1.39 -0.79,-3.23 -0.79,-4.23 0,-5.37 5.97,-5.37 6.62,-5.37 4.24,0 5.97,5.03 5.97,5.73 0,0.59 -0.55,0.59 -0.59,0.59 -0.46,0 -0.55,-0.36 -0.64,-0.7 -1.25,-3.69 -3.39,-4.53 -4.55,-4.53 -1.64,0 -1.98,1.09 -1.98,3.05 0,1.53 0.29,4.07 0.5,5.67 0.09,0.7 0.2,1.64 0.2,2.34 0,3.83 -3.35,5.38 -4.69,5.88 z"
           inkscape:connector-curvature="0"
           style="fill:#000000;stroke-width:0" /><path
           id="path7586"
           d="m 621.58,418.65 0,0.37 -0.01,0.39 -0.01,0.39 -0.01,0.41 -0.04,0.84 -0.06,0.88 -0.08,0.92 -0.11,0.95 -0.13,0.97 -0.17,1.01 -0.19,1.02 -0.23,1.03 -0.27,1.05 -0.31,1.06 -0.34,1.07 -0.4,1.07 -0.21,0.53 -0.23,0.53 -0.23,0.53 -0.25,0.53 c -2.99,6.12 -7.27,9.36 -7.77,9.36 -0.3,0 -0.5,-0.19 -0.5,-0.49 0,-0.15 0,-0.25 0.94,-1.15 4.89,-4.92 7.73,-12.85 7.73,-23.27 0,-8.51 -1.84,-17.28 -8.03,-23.56 -0.64,-0.59 -0.64,-0.7 -0.64,-0.84 0,-0.3 0.2,-0.5 0.5,-0.5 0.5,0 4.97,3.39 7.92,9.71 2.53,5.47 3.13,11 3.13,15.19 z"
           inkscape:connector-curvature="0"
           style="fill:#000000;stroke-width:0" /></g>    </g>
  </g>
</svg>
